# Blender 4.3.1
# www.blender.org
mtllib tarots.mtl
o TIME
v -0.001788 2.374760 1.000894
v -0.001788 2.392751 0.990218
v -0.001788 -1.187796 0.990218
v -0.001788 -1.169805 1.000894
v -0.001788 2.374758 -0.999106
v -0.001788 2.392749 -0.988430
v -0.001788 -1.169807 -0.999105
v -0.001788 -1.187798 -0.988430
v 0.002156 2.374759 1.000894
v 0.002156 2.392750 0.990218
v 0.002156 -1.187797 0.990218
v 0.002156 -1.169806 1.000894
v 0.002156 2.374758 -0.999106
v 0.002156 2.392749 -0.988430
v 0.002156 -1.169807 -0.999105
v 0.002156 -1.187798 -0.988430
vn -0.0001 -1.0000 -0.0000
vn -0.0001 -0.5103 -0.8600
vn -0.0000 -0.0000 -1.0000
vn 0.0001 0.5103 -0.8600
vn 0.0001 1.0000 -0.0000
vn -0.0000 0.5103 0.8600
vn -0.0000 -0.0000 1.0000
vn -0.0000 -0.5103 0.8600
vn -1.0000 -0.0000 -0.0000
vn 1.0000 -0.0000 -0.0000
vt 0.000000 0.005338
vt 0.000000 0.994662
vt 0.005025 0.000000
vt 0.994975 0.000000
vt 1.000000 0.005338
vt 1.000000 0.994662
vt 0.994975 1.000000
vt 0.005025 1.000000
vt 0.023844 0.995983
vt 0.256304 0.994888
vt 0.257169 0.989761
vt 0.256074 0.004471
vt 0.255198 -0.000645
vt 0.022738 0.000450
vt 0.021873 0.005577
vt 0.022968 0.990867
vt 0.500806 1.000324
vt 0.499982 0.995444
vt 0.500992 0.003535
vt 0.501826 -0.001334
vt 0.738549 -0.000324
vt 0.739373 0.004556
vt 0.738363 0.996465
vt 0.737529 1.001334
s 1
usemtl MARIONETTE.002
f 2/1/1 6/2/1 14/2/1 10/1/1
f 1/3/2 2/1/2 10/1/2 9/3/2
f 4/4/3 1/3/3 9/3/3 12/4/3
f 3/5/4 4/4/4 12/4/4 11/5/4
f 8/6/5 3/5/5 11/5/5 16/6/5
f 7/7/6 8/6/6 16/6/6 15/7/6
f 5/8/7 7/7/7 15/7/7 13/8/7
f 6/2/8 5/8/8 13/8/8 14/2/8
usemtl BACK.002
f 2/9/9 6/10/9 5/11/9 7/12/9 8/13/9 3/14/9 4/15/9 1/16/9
usemtl TIME.002
f 10/17/10 9/18/10 12/19/10 11/20/10 16/21/10 15/22/10 13/23/10 14/24/10
o MARIONETTE
v -0.335764 1.327388 -1.182528
v -0.335764 1.345379 -1.193204
v -0.335764 -2.235168 -1.193204
v -0.335764 -2.217177 -1.182528
v -0.335764 1.327388 -3.182528
v -0.335764 1.345379 -3.171853
v -0.335764 -2.217177 -3.182528
v -0.335764 -2.235168 -3.171852
v -0.331819 1.327387 -1.182528
v -0.331819 1.345378 -1.193204
v -0.331819 -2.235169 -1.193204
v -0.331819 -2.217178 -1.182528
v -0.331819 1.327387 -3.182528
v -0.331819 1.345378 -3.171853
v -0.331819 -2.217178 -3.182528
v -0.331819 -2.235169 -3.171852
vn -1.0000 -0.0000 -0.0000
vn 1.0000 -0.0000 -0.0000
vn 0.0002 1.0000 -0.0000
vn 0.0001 0.5103 0.8600
vn -0.0000 -0.0000 1.0000
vn -0.0001 -0.5103 0.8600
vn -0.0002 -1.0000 -0.0000
vn -0.0001 -0.5103 -0.8600
vn -0.0000 -0.0000 -1.0000
vn 0.0001 0.5103 -0.8600
vt 0.023844 0.995983
vt 0.256304 0.994888
vt 0.257169 0.989761
vt 0.256074 0.004471
vt 0.255198 -0.000645
vt 0.022738 0.000450
vt 0.021873 0.005577
vt 0.022968 0.990867
vt 0.262696 1.000324
vt 0.261872 0.995444
vt 0.262882 0.003535
vt 0.263716 -0.001334
vt 0.500439 -0.000324
vt 0.501263 0.004556
vt 0.500253 0.996465
vt 0.499419 1.001334
vt 0.000000 0.005338
vt 0.000000 0.994662
vt 0.005025 0.000000
vt 0.994975 0.000000
vt 1.000000 0.005338
vt 1.000000 0.994662
vt 0.994975 1.000000
vt 0.005025 1.000000
s 1
usemtl MARIONETTE.004
f 26/33/12 25/34/12 28/35/12 27/36/12 32/37/12 31/38/12 29/39/12 30/40/12
f 18/41/13 26/41/13 30/42/13 22/42/13
f 17/43/14 25/43/14 26/41/14 18/41/14
f 20/44/15 28/44/15 25/43/15 17/43/15
f 19/45/16 27/45/16 28/44/16 20/44/16
f 24/46/17 32/46/17 27/45/17 19/45/17
f 23/47/18 31/47/18 32/46/18 24/46/18
f 21/48/19 29/48/19 31/47/19 23/47/19
f 22/42/20 30/42/20 29/48/20 21/48/20
usemtl BACK.004
f 18/25/11 22/26/11 21/27/11 23/28/11 24/29/11 19/30/11 20/31/11 17/32/11
o JESTER
v -0.378060 1.380165 3.170041
v -0.378060 1.398156 3.159365
v -0.378060 -2.182391 3.159365
v -0.378060 -2.164400 3.170041
v -0.378060 1.380165 1.170041
v -0.378060 1.398156 1.180717
v -0.378060 -2.164400 1.170042
v -0.378060 -2.182391 1.180717
v -0.374115 1.380164 3.170041
v -0.374115 1.398155 3.159365
v -0.374115 -2.182391 3.159365
v -0.374115 -2.164401 3.170041
v -0.374115 1.380164 1.170041
v -0.374115 1.398155 1.180717
v -0.374115 -2.164401 1.170042
v -0.374115 -2.182392 1.180717
vn -1.0000 -0.0000 -0.0000
vn 1.0000 -0.0000 -0.0000
vn 0.0002 1.0000 -0.0000
vn 0.0001 0.5103 0.8600
vn -0.0000 -0.0000 1.0000
vn -0.0001 -0.5103 0.8600
vn -0.0002 -1.0000 -0.0000
vn -0.0001 -0.5103 -0.8600
vn -0.0000 -0.0000 -1.0000
vn 0.0001 0.5103 -0.8600
vt 0.023844 0.995983
vt 0.256304 0.994888
vt 0.257169 0.989761
vt 0.256074 0.004471
vt 0.255198 -0.000645
vt 0.022738 0.000450
vt 0.021873 0.005577
vt 0.022968 0.990867
vt 0.740191 1.000324
vt 0.739367 0.995444
vt 0.740377 0.003535
vt 0.741211 -0.001334
vt 0.977934 -0.000324
vt 0.978758 0.004556
vt 0.977748 0.996465
vt 0.976914 1.001334
vt 0.000000 0.005338
vt 0.000000 0.994662
vt 0.005025 0.000000
vt 0.994975 0.000000
vt 1.000000 0.005338
vt 1.000000 0.994662
vt 0.994975 1.000000
vt 0.005025 1.000000
s 1
usemtl MARIONETTE.005
f 34/65/23 42/65/23 46/66/23 38/66/23
f 33/67/24 41/67/24 42/65/24 34/65/24
f 36/68/25 44/68/25 41/67/25 33/67/25
f 35/69/26 43/69/26 44/68/26 36/68/26
f 40/70/27 48/70/27 43/69/27 35/69/27
f 39/71/28 47/71/28 48/70/28 40/70/28
f 37/72/29 45/72/29 47/71/29 39/71/29
f 38/66/30 46/66/30 45/72/30 37/72/30
usemtl BACK.005
f 34/49/21 38/50/21 37/51/21 39/52/21 40/53/21 35/54/21 36/55/21 33/56/21
usemtl JESTER.002
f 42/57/22 41/58/22 44/59/22 43/60/22 48/61/22 47/62/22 45/63/22 46/64/22
